<mxfile host="app.diagrams.net" modified="2024-04-04T07:34:33.130Z" agent="Mozilla/5.0 (Windows NT 10.0; Win64; x64) AppleWebKit/537.36 (KHTML, like Gecko) Chrome/123.0.0.0 Safari/537.36" etag="Y5HP7kjZU-KGJxjhEv1Y" version="24.2.2" type="device">
  <diagram id="R2lEEEUBdFMjLlhIrx00" name="Page-1">
    <mxGraphModel dx="-56" dy="724" grid="1" gridSize="10" guides="1" tooltips="1" connect="1" arrows="1" fold="1" page="1" pageScale="1" pageWidth="850" pageHeight="1100" math="0" shadow="0" extFonts="Permanent Marker^https://fonts.googleapis.com/css?family=Permanent+Marker">
      <root>
        <mxCell id="0" />
        <mxCell id="1" parent="0" />
        <mxCell id="jawmpuD1RzxkUAFrGuxK-1" value="이미지 업로드 게시판" style="rounded=0;whiteSpace=wrap;html=1;" vertex="1" parent="1">
          <mxGeometry x="1160" y="240" width="160" height="40" as="geometry" />
        </mxCell>
        <mxCell id="jawmpuD1RzxkUAFrGuxK-2" value="글제목" style="ellipse;whiteSpace=wrap;html=1;" vertex="1" parent="1">
          <mxGeometry x="1110" y="190" width="80" height="40" as="geometry" />
        </mxCell>
        <mxCell id="jawmpuD1RzxkUAFrGuxK-3" value="글내용" style="ellipse;whiteSpace=wrap;html=1;" vertex="1" parent="1">
          <mxGeometry x="1110" y="290" width="80" height="40" as="geometry" />
        </mxCell>
        <mxCell id="jawmpuD1RzxkUAFrGuxK-4" value="작성일" style="ellipse;whiteSpace=wrap;html=1;" vertex="1" parent="1">
          <mxGeometry x="1200" y="300" width="80" height="40" as="geometry" />
        </mxCell>
        <mxCell id="jawmpuD1RzxkUAFrGuxK-5" value="작성자" style="ellipse;whiteSpace=wrap;html=1;" vertex="1" parent="1">
          <mxGeometry x="1290" y="290" width="80" height="40" as="geometry" />
        </mxCell>
        <mxCell id="jawmpuD1RzxkUAFrGuxK-6" value="노출여부" style="ellipse;whiteSpace=wrap;html=1;" vertex="1" parent="1">
          <mxGeometry x="1290" y="190" width="80" height="40" as="geometry" />
        </mxCell>
        <mxCell id="jawmpuD1RzxkUAFrGuxK-8" value="파일정보" style="rounded=0;whiteSpace=wrap;html=1;" vertex="1" parent="1">
          <mxGeometry x="1480" y="240" width="100" height="40" as="geometry" />
        </mxCell>
        <mxCell id="jawmpuD1RzxkUAFrGuxK-11" value="글번호" style="ellipse;whiteSpace=wrap;html=1;align=center;fontStyle=4;" vertex="1" parent="1">
          <mxGeometry x="1200" y="180" width="80" height="40" as="geometry" />
        </mxCell>
        <mxCell id="jawmpuD1RzxkUAFrGuxK-13" value="파일번호" style="ellipse;whiteSpace=wrap;html=1;align=center;fontStyle=4;" vertex="1" parent="1">
          <mxGeometry x="1490" y="170" width="80" height="40" as="geometry" />
        </mxCell>
        <mxCell id="jawmpuD1RzxkUAFrGuxK-14" value="저장이름" style="ellipse;whiteSpace=wrap;html=1;" vertex="1" parent="1">
          <mxGeometry x="1490" y="300" width="80" height="40" as="geometry" />
        </mxCell>
        <mxCell id="jawmpuD1RzxkUAFrGuxK-15" value="업로드이름" style="ellipse;whiteSpace=wrap;html=1;" vertex="1" parent="1">
          <mxGeometry x="1400" y="290" width="80" height="40" as="geometry" />
        </mxCell>
        <mxCell id="jawmpuD1RzxkUAFrGuxK-16" value="저장경로" style="ellipse;whiteSpace=wrap;html=1;" vertex="1" parent="1">
          <mxGeometry x="1400" y="180" width="80" height="40" as="geometry" />
        </mxCell>
        <mxCell id="jawmpuD1RzxkUAFrGuxK-17" value="사용여부" style="ellipse;whiteSpace=wrap;html=1;" vertex="1" parent="1">
          <mxGeometry x="1610" y="240" width="80" height="40" as="geometry" />
        </mxCell>
        <mxCell id="jawmpuD1RzxkUAFrGuxK-18" value="저장일" style="ellipse;whiteSpace=wrap;html=1;" vertex="1" parent="1">
          <mxGeometry x="1580" y="290" width="80" height="40" as="geometry" />
        </mxCell>
        <mxCell id="jawmpuD1RzxkUAFrGuxK-19" value="파일길이" style="ellipse;whiteSpace=wrap;html=1;" vertex="1" parent="1">
          <mxGeometry x="1580" y="180" width="80" height="40" as="geometry" />
        </mxCell>
        <mxCell id="jawmpuD1RzxkUAFrGuxK-20" value="" style="edgeStyle=entityRelationEdgeStyle;fontSize=12;html=1;endArrow=ERzeroToMany;startArrow=ERmandOne;rounded=0;exitX=1;exitY=0.5;exitDx=0;exitDy=0;entryX=0;entryY=0.5;entryDx=0;entryDy=0;" edge="1" parent="1" source="jawmpuD1RzxkUAFrGuxK-1" target="jawmpuD1RzxkUAFrGuxK-8">
          <mxGeometry width="100" height="100" relative="1" as="geometry">
            <mxPoint x="1320" y="330" as="sourcePoint" />
            <mxPoint x="1420" y="230" as="targetPoint" />
          </mxGeometry>
        </mxCell>
        <mxCell id="jawmpuD1RzxkUAFrGuxK-21" value="" style="endArrow=none;html=1;rounded=0;exitX=1;exitY=1;exitDx=0;exitDy=0;entryX=0.5;entryY=0;entryDx=0;entryDy=0;" edge="1" parent="1" source="jawmpuD1RzxkUAFrGuxK-1" target="jawmpuD1RzxkUAFrGuxK-5">
          <mxGeometry relative="1" as="geometry">
            <mxPoint x="1370" y="280" as="sourcePoint" />
            <mxPoint x="1530" y="280" as="targetPoint" />
          </mxGeometry>
        </mxCell>
        <mxCell id="jawmpuD1RzxkUAFrGuxK-24" value="" style="endArrow=none;html=1;rounded=0;exitX=0.5;exitY=1;exitDx=0;exitDy=0;entryX=0.5;entryY=0;entryDx=0;entryDy=0;" edge="1" parent="1" source="jawmpuD1RzxkUAFrGuxK-1" target="jawmpuD1RzxkUAFrGuxK-4">
          <mxGeometry relative="1" as="geometry">
            <mxPoint x="1370" y="280" as="sourcePoint" />
            <mxPoint x="1530" y="280" as="targetPoint" />
          </mxGeometry>
        </mxCell>
        <mxCell id="jawmpuD1RzxkUAFrGuxK-25" value="" style="endArrow=none;html=1;rounded=0;exitX=0;exitY=1;exitDx=0;exitDy=0;entryX=0.5;entryY=0;entryDx=0;entryDy=0;" edge="1" parent="1" source="jawmpuD1RzxkUAFrGuxK-1" target="jawmpuD1RzxkUAFrGuxK-3">
          <mxGeometry relative="1" as="geometry">
            <mxPoint x="1280" y="290" as="sourcePoint" />
            <mxPoint x="1250" y="330" as="targetPoint" />
          </mxGeometry>
        </mxCell>
        <mxCell id="jawmpuD1RzxkUAFrGuxK-26" value="" style="endArrow=none;html=1;rounded=0;exitX=0.5;exitY=1;exitDx=0;exitDy=0;entryX=0;entryY=0;entryDx=0;entryDy=0;" edge="1" parent="1" source="jawmpuD1RzxkUAFrGuxK-2" target="jawmpuD1RzxkUAFrGuxK-1">
          <mxGeometry relative="1" as="geometry">
            <mxPoint x="1290" y="300" as="sourcePoint" />
            <mxPoint x="1260" y="340" as="targetPoint" />
          </mxGeometry>
        </mxCell>
        <mxCell id="jawmpuD1RzxkUAFrGuxK-27" value="" style="endArrow=none;html=1;rounded=0;exitX=0.5;exitY=1;exitDx=0;exitDy=0;entryX=0.5;entryY=0;entryDx=0;entryDy=0;" edge="1" parent="1" source="jawmpuD1RzxkUAFrGuxK-11" target="jawmpuD1RzxkUAFrGuxK-1">
          <mxGeometry relative="1" as="geometry">
            <mxPoint x="1200" y="230" as="sourcePoint" />
            <mxPoint x="1240" y="250" as="targetPoint" />
          </mxGeometry>
        </mxCell>
        <mxCell id="jawmpuD1RzxkUAFrGuxK-28" value="" style="endArrow=none;html=1;rounded=0;exitX=0.5;exitY=1;exitDx=0;exitDy=0;entryX=1;entryY=0;entryDx=0;entryDy=0;" edge="1" parent="1" source="jawmpuD1RzxkUAFrGuxK-6" target="jawmpuD1RzxkUAFrGuxK-1">
          <mxGeometry relative="1" as="geometry">
            <mxPoint x="1250" y="210" as="sourcePoint" />
            <mxPoint x="1280" y="250" as="targetPoint" />
          </mxGeometry>
        </mxCell>
        <mxCell id="jawmpuD1RzxkUAFrGuxK-30" value="" style="endArrow=none;html=1;rounded=0;exitX=0.5;exitY=1;exitDx=0;exitDy=0;entryX=0.5;entryY=0;entryDx=0;entryDy=0;" edge="1" parent="1" source="jawmpuD1RzxkUAFrGuxK-8" target="jawmpuD1RzxkUAFrGuxK-14">
          <mxGeometry relative="1" as="geometry">
            <mxPoint x="1180" y="220" as="sourcePoint" />
            <mxPoint x="1210" y="260" as="targetPoint" />
          </mxGeometry>
        </mxCell>
        <mxCell id="jawmpuD1RzxkUAFrGuxK-31" value="" style="endArrow=none;html=1;rounded=0;exitX=0;exitY=1;exitDx=0;exitDy=0;entryX=0.5;entryY=0;entryDx=0;entryDy=0;" edge="1" parent="1" source="jawmpuD1RzxkUAFrGuxK-8" target="jawmpuD1RzxkUAFrGuxK-15">
          <mxGeometry relative="1" as="geometry">
            <mxPoint x="1540" y="290" as="sourcePoint" />
            <mxPoint x="1530" y="330" as="targetPoint" />
          </mxGeometry>
        </mxCell>
        <mxCell id="jawmpuD1RzxkUAFrGuxK-32" value="" style="endArrow=none;html=1;rounded=0;exitX=0.5;exitY=1;exitDx=0;exitDy=0;entryX=0;entryY=0;entryDx=0;entryDy=0;" edge="1" parent="1" source="jawmpuD1RzxkUAFrGuxK-16" target="jawmpuD1RzxkUAFrGuxK-8">
          <mxGeometry relative="1" as="geometry">
            <mxPoint x="1490" y="290" as="sourcePoint" />
            <mxPoint x="1480" y="310" as="targetPoint" />
          </mxGeometry>
        </mxCell>
        <mxCell id="jawmpuD1RzxkUAFrGuxK-33" value="" style="endArrow=none;html=1;rounded=0;exitX=0.5;exitY=1;exitDx=0;exitDy=0;entryX=0.5;entryY=0;entryDx=0;entryDy=0;" edge="1" parent="1" source="jawmpuD1RzxkUAFrGuxK-13" target="jawmpuD1RzxkUAFrGuxK-8">
          <mxGeometry relative="1" as="geometry">
            <mxPoint x="1478" y="238" as="sourcePoint" />
            <mxPoint x="1490" y="250" as="targetPoint" />
          </mxGeometry>
        </mxCell>
        <mxCell id="jawmpuD1RzxkUAFrGuxK-34" value="" style="endArrow=none;html=1;rounded=0;exitX=1;exitY=1;exitDx=0;exitDy=0;entryX=0.5;entryY=0;entryDx=0;entryDy=0;" edge="1" parent="1" source="jawmpuD1RzxkUAFrGuxK-8" target="jawmpuD1RzxkUAFrGuxK-18">
          <mxGeometry relative="1" as="geometry">
            <mxPoint x="1488" y="248" as="sourcePoint" />
            <mxPoint x="1500" y="260" as="targetPoint" />
          </mxGeometry>
        </mxCell>
        <mxCell id="jawmpuD1RzxkUAFrGuxK-35" value="" style="endArrow=none;html=1;rounded=0;exitX=1;exitY=0.5;exitDx=0;exitDy=0;entryX=0;entryY=0.5;entryDx=0;entryDy=0;" edge="1" parent="1" source="jawmpuD1RzxkUAFrGuxK-8" target="jawmpuD1RzxkUAFrGuxK-17">
          <mxGeometry relative="1" as="geometry">
            <mxPoint x="1498" y="258" as="sourcePoint" />
            <mxPoint x="1510" y="270" as="targetPoint" />
          </mxGeometry>
        </mxCell>
        <mxCell id="jawmpuD1RzxkUAFrGuxK-36" value="" style="endArrow=none;html=1;rounded=0;entryX=0.5;entryY=1;entryDx=0;entryDy=0;" edge="1" parent="1" target="jawmpuD1RzxkUAFrGuxK-19">
          <mxGeometry relative="1" as="geometry">
            <mxPoint x="1580" y="240" as="sourcePoint" />
            <mxPoint x="1520" y="280" as="targetPoint" />
          </mxGeometry>
        </mxCell>
        <mxCell id="jawmpuD1RzxkUAFrGuxK-37" value="회원" style="rounded=0;whiteSpace=wrap;html=1;" vertex="1" parent="1">
          <mxGeometry x="880" y="240" width="160" height="40" as="geometry" />
        </mxCell>
        <mxCell id="jawmpuD1RzxkUAFrGuxK-38" value="" style="edgeStyle=entityRelationEdgeStyle;fontSize=12;html=1;endArrow=ERzeroToMany;startArrow=ERmandOne;rounded=0;exitX=1;exitY=0.5;exitDx=0;exitDy=0;" edge="1" parent="1">
          <mxGeometry width="100" height="100" relative="1" as="geometry">
            <mxPoint x="1040" y="259.5" as="sourcePoint" />
            <mxPoint x="1160" y="260" as="targetPoint" />
          </mxGeometry>
        </mxCell>
        <mxCell id="jawmpuD1RzxkUAFrGuxK-39" value="회원&lt;span style=&quot;white-space: pre;&quot;&gt;&#x9;&lt;/span&gt;" style="shape=table;startSize=30;container=1;collapsible=1;childLayout=tableLayout;fixedRows=1;rowLines=0;fontStyle=1;align=center;resizeLast=1;html=1;" vertex="1" parent="1">
          <mxGeometry x="870" y="430" width="180" height="150" as="geometry" />
        </mxCell>
        <mxCell id="jawmpuD1RzxkUAFrGuxK-40" value="" style="shape=tableRow;horizontal=0;startSize=0;swimlaneHead=0;swimlaneBody=0;fillColor=none;collapsible=0;dropTarget=0;points=[[0,0.5],[1,0.5]];portConstraint=eastwest;top=0;left=0;right=0;bottom=1;" vertex="1" parent="jawmpuD1RzxkUAFrGuxK-39">
          <mxGeometry y="30" width="180" height="30" as="geometry" />
        </mxCell>
        <mxCell id="jawmpuD1RzxkUAFrGuxK-41" value="PK" style="shape=partialRectangle;connectable=0;fillColor=none;top=0;left=0;bottom=0;right=0;fontStyle=1;overflow=hidden;whiteSpace=wrap;html=1;" vertex="1" parent="jawmpuD1RzxkUAFrGuxK-40">
          <mxGeometry width="30" height="30" as="geometry">
            <mxRectangle width="30" height="30" as="alternateBounds" />
          </mxGeometry>
        </mxCell>
        <mxCell id="jawmpuD1RzxkUAFrGuxK-42" value="회원번호" style="shape=partialRectangle;connectable=0;fillColor=none;top=0;left=0;bottom=0;right=0;align=left;spacingLeft=6;fontStyle=5;overflow=hidden;whiteSpace=wrap;html=1;" vertex="1" parent="jawmpuD1RzxkUAFrGuxK-40">
          <mxGeometry x="30" width="150" height="30" as="geometry">
            <mxRectangle width="150" height="30" as="alternateBounds" />
          </mxGeometry>
        </mxCell>
        <mxCell id="jawmpuD1RzxkUAFrGuxK-43" value="" style="shape=tableRow;horizontal=0;startSize=0;swimlaneHead=0;swimlaneBody=0;fillColor=none;collapsible=0;dropTarget=0;points=[[0,0.5],[1,0.5]];portConstraint=eastwest;top=0;left=0;right=0;bottom=0;" vertex="1" parent="jawmpuD1RzxkUAFrGuxK-39">
          <mxGeometry y="60" width="180" height="30" as="geometry" />
        </mxCell>
        <mxCell id="jawmpuD1RzxkUAFrGuxK-44" value="" style="shape=partialRectangle;connectable=0;fillColor=none;top=0;left=0;bottom=0;right=0;editable=1;overflow=hidden;whiteSpace=wrap;html=1;" vertex="1" parent="jawmpuD1RzxkUAFrGuxK-43">
          <mxGeometry width="30" height="30" as="geometry">
            <mxRectangle width="30" height="30" as="alternateBounds" />
          </mxGeometry>
        </mxCell>
        <mxCell id="jawmpuD1RzxkUAFrGuxK-45" value="이름" style="shape=partialRectangle;connectable=0;fillColor=none;top=0;left=0;bottom=0;right=0;align=left;spacingLeft=6;overflow=hidden;whiteSpace=wrap;html=1;" vertex="1" parent="jawmpuD1RzxkUAFrGuxK-43">
          <mxGeometry x="30" width="150" height="30" as="geometry">
            <mxRectangle width="150" height="30" as="alternateBounds" />
          </mxGeometry>
        </mxCell>
        <mxCell id="jawmpuD1RzxkUAFrGuxK-46" value="" style="shape=tableRow;horizontal=0;startSize=0;swimlaneHead=0;swimlaneBody=0;fillColor=none;collapsible=0;dropTarget=0;points=[[0,0.5],[1,0.5]];portConstraint=eastwest;top=0;left=0;right=0;bottom=0;" vertex="1" parent="jawmpuD1RzxkUAFrGuxK-39">
          <mxGeometry y="90" width="180" height="30" as="geometry" />
        </mxCell>
        <mxCell id="jawmpuD1RzxkUAFrGuxK-47" value="UK" style="shape=partialRectangle;connectable=0;fillColor=none;top=0;left=0;bottom=0;right=0;editable=1;overflow=hidden;whiteSpace=wrap;html=1;" vertex="1" parent="jawmpuD1RzxkUAFrGuxK-46">
          <mxGeometry width="30" height="30" as="geometry">
            <mxRectangle width="30" height="30" as="alternateBounds" />
          </mxGeometry>
        </mxCell>
        <mxCell id="jawmpuD1RzxkUAFrGuxK-48" value="아이디" style="shape=partialRectangle;connectable=0;fillColor=none;top=0;left=0;bottom=0;right=0;align=left;spacingLeft=6;overflow=hidden;whiteSpace=wrap;html=1;" vertex="1" parent="jawmpuD1RzxkUAFrGuxK-46">
          <mxGeometry x="30" width="150" height="30" as="geometry">
            <mxRectangle width="150" height="30" as="alternateBounds" />
          </mxGeometry>
        </mxCell>
        <mxCell id="jawmpuD1RzxkUAFrGuxK-49" value="" style="shape=tableRow;horizontal=0;startSize=0;swimlaneHead=0;swimlaneBody=0;fillColor=none;collapsible=0;dropTarget=0;points=[[0,0.5],[1,0.5]];portConstraint=eastwest;top=0;left=0;right=0;bottom=0;" vertex="1" parent="jawmpuD1RzxkUAFrGuxK-39">
          <mxGeometry y="120" width="180" height="30" as="geometry" />
        </mxCell>
        <mxCell id="jawmpuD1RzxkUAFrGuxK-50" value="" style="shape=partialRectangle;connectable=0;fillColor=none;top=0;left=0;bottom=0;right=0;editable=1;overflow=hidden;whiteSpace=wrap;html=1;" vertex="1" parent="jawmpuD1RzxkUAFrGuxK-49">
          <mxGeometry width="30" height="30" as="geometry">
            <mxRectangle width="30" height="30" as="alternateBounds" />
          </mxGeometry>
        </mxCell>
        <mxCell id="jawmpuD1RzxkUAFrGuxK-51" value="etc" style="shape=partialRectangle;connectable=0;fillColor=none;top=0;left=0;bottom=0;right=0;align=left;spacingLeft=6;overflow=hidden;whiteSpace=wrap;html=1;" vertex="1" parent="jawmpuD1RzxkUAFrGuxK-49">
          <mxGeometry x="30" width="150" height="30" as="geometry">
            <mxRectangle width="150" height="30" as="alternateBounds" />
          </mxGeometry>
        </mxCell>
        <mxCell id="jawmpuD1RzxkUAFrGuxK-52" value="파일 게시판&lt;span style=&quot;white-space: pre;&quot;&gt;&#x9;&lt;/span&gt;" style="shape=table;startSize=30;container=1;collapsible=1;childLayout=tableLayout;fixedRows=1;rowLines=0;fontStyle=1;align=center;resizeLast=1;html=1;" vertex="1" parent="1">
          <mxGeometry x="1150" y="430" width="180" height="210" as="geometry" />
        </mxCell>
        <mxCell id="jawmpuD1RzxkUAFrGuxK-53" value="" style="shape=tableRow;horizontal=0;startSize=0;swimlaneHead=0;swimlaneBody=0;fillColor=none;collapsible=0;dropTarget=0;points=[[0,0.5],[1,0.5]];portConstraint=eastwest;top=0;left=0;right=0;bottom=1;" vertex="1" parent="jawmpuD1RzxkUAFrGuxK-52">
          <mxGeometry y="30" width="180" height="30" as="geometry" />
        </mxCell>
        <mxCell id="jawmpuD1RzxkUAFrGuxK-54" value="PK" style="shape=partialRectangle;connectable=0;fillColor=none;top=0;left=0;bottom=0;right=0;fontStyle=1;overflow=hidden;whiteSpace=wrap;html=1;" vertex="1" parent="jawmpuD1RzxkUAFrGuxK-53">
          <mxGeometry width="30" height="30" as="geometry">
            <mxRectangle width="30" height="30" as="alternateBounds" />
          </mxGeometry>
        </mxCell>
        <mxCell id="jawmpuD1RzxkUAFrGuxK-55" value="글번호" style="shape=partialRectangle;connectable=0;fillColor=none;top=0;left=0;bottom=0;right=0;align=left;spacingLeft=6;fontStyle=5;overflow=hidden;whiteSpace=wrap;html=1;" vertex="1" parent="jawmpuD1RzxkUAFrGuxK-53">
          <mxGeometry x="30" width="150" height="30" as="geometry">
            <mxRectangle width="150" height="30" as="alternateBounds" />
          </mxGeometry>
        </mxCell>
        <mxCell id="jawmpuD1RzxkUAFrGuxK-56" value="" style="shape=tableRow;horizontal=0;startSize=0;swimlaneHead=0;swimlaneBody=0;fillColor=none;collapsible=0;dropTarget=0;points=[[0,0.5],[1,0.5]];portConstraint=eastwest;top=0;left=0;right=0;bottom=0;" vertex="1" parent="jawmpuD1RzxkUAFrGuxK-52">
          <mxGeometry y="60" width="180" height="30" as="geometry" />
        </mxCell>
        <mxCell id="jawmpuD1RzxkUAFrGuxK-57" value="" style="shape=partialRectangle;connectable=0;fillColor=none;top=0;left=0;bottom=0;right=0;editable=1;overflow=hidden;whiteSpace=wrap;html=1;" vertex="1" parent="jawmpuD1RzxkUAFrGuxK-56">
          <mxGeometry width="30" height="30" as="geometry">
            <mxRectangle width="30" height="30" as="alternateBounds" />
          </mxGeometry>
        </mxCell>
        <mxCell id="jawmpuD1RzxkUAFrGuxK-58" value="제목" style="shape=partialRectangle;connectable=0;fillColor=none;top=0;left=0;bottom=0;right=0;align=left;spacingLeft=6;overflow=hidden;whiteSpace=wrap;html=1;" vertex="1" parent="jawmpuD1RzxkUAFrGuxK-56">
          <mxGeometry x="30" width="150" height="30" as="geometry">
            <mxRectangle width="150" height="30" as="alternateBounds" />
          </mxGeometry>
        </mxCell>
        <mxCell id="jawmpuD1RzxkUAFrGuxK-59" value="" style="shape=tableRow;horizontal=0;startSize=0;swimlaneHead=0;swimlaneBody=0;fillColor=none;collapsible=0;dropTarget=0;points=[[0,0.5],[1,0.5]];portConstraint=eastwest;top=0;left=0;right=0;bottom=0;" vertex="1" parent="jawmpuD1RzxkUAFrGuxK-52">
          <mxGeometry y="90" width="180" height="30" as="geometry" />
        </mxCell>
        <mxCell id="jawmpuD1RzxkUAFrGuxK-60" value="FK&lt;span style=&quot;white-space: pre;&quot;&gt;&#x9;&lt;/span&gt;" style="shape=partialRectangle;connectable=0;fillColor=none;top=0;left=0;bottom=0;right=0;editable=1;overflow=hidden;whiteSpace=wrap;html=1;" vertex="1" parent="jawmpuD1RzxkUAFrGuxK-59">
          <mxGeometry width="30" height="30" as="geometry">
            <mxRectangle width="30" height="30" as="alternateBounds" />
          </mxGeometry>
        </mxCell>
        <mxCell id="jawmpuD1RzxkUAFrGuxK-61" value="작성자" style="shape=partialRectangle;connectable=0;fillColor=none;top=0;left=0;bottom=0;right=0;align=left;spacingLeft=6;overflow=hidden;whiteSpace=wrap;html=1;" vertex="1" parent="jawmpuD1RzxkUAFrGuxK-59">
          <mxGeometry x="30" width="150" height="30" as="geometry">
            <mxRectangle width="150" height="30" as="alternateBounds" />
          </mxGeometry>
        </mxCell>
        <mxCell id="jawmpuD1RzxkUAFrGuxK-68" value="" style="shape=tableRow;horizontal=0;startSize=0;swimlaneHead=0;swimlaneBody=0;fillColor=none;collapsible=0;dropTarget=0;points=[[0,0.5],[1,0.5]];portConstraint=eastwest;top=0;left=0;right=0;bottom=0;" vertex="1" parent="jawmpuD1RzxkUAFrGuxK-52">
          <mxGeometry y="120" width="180" height="30" as="geometry" />
        </mxCell>
        <mxCell id="jawmpuD1RzxkUAFrGuxK-69" value="" style="shape=partialRectangle;connectable=0;fillColor=none;top=0;left=0;bottom=0;right=0;editable=1;overflow=hidden;whiteSpace=wrap;html=1;" vertex="1" parent="jawmpuD1RzxkUAFrGuxK-68">
          <mxGeometry width="30" height="30" as="geometry">
            <mxRectangle width="30" height="30" as="alternateBounds" />
          </mxGeometry>
        </mxCell>
        <mxCell id="jawmpuD1RzxkUAFrGuxK-70" value="글내용" style="shape=partialRectangle;connectable=0;fillColor=none;top=0;left=0;bottom=0;right=0;align=left;spacingLeft=6;overflow=hidden;whiteSpace=wrap;html=1;" vertex="1" parent="jawmpuD1RzxkUAFrGuxK-68">
          <mxGeometry x="30" width="150" height="30" as="geometry">
            <mxRectangle width="150" height="30" as="alternateBounds" />
          </mxGeometry>
        </mxCell>
        <mxCell id="jawmpuD1RzxkUAFrGuxK-71" value="" style="shape=tableRow;horizontal=0;startSize=0;swimlaneHead=0;swimlaneBody=0;fillColor=none;collapsible=0;dropTarget=0;points=[[0,0.5],[1,0.5]];portConstraint=eastwest;top=0;left=0;right=0;bottom=0;" vertex="1" parent="jawmpuD1RzxkUAFrGuxK-52">
          <mxGeometry y="150" width="180" height="30" as="geometry" />
        </mxCell>
        <mxCell id="jawmpuD1RzxkUAFrGuxK-72" value="" style="shape=partialRectangle;connectable=0;fillColor=none;top=0;left=0;bottom=0;right=0;editable=1;overflow=hidden;whiteSpace=wrap;html=1;" vertex="1" parent="jawmpuD1RzxkUAFrGuxK-71">
          <mxGeometry width="30" height="30" as="geometry">
            <mxRectangle width="30" height="30" as="alternateBounds" />
          </mxGeometry>
        </mxCell>
        <mxCell id="jawmpuD1RzxkUAFrGuxK-73" value="작성일" style="shape=partialRectangle;connectable=0;fillColor=none;top=0;left=0;bottom=0;right=0;align=left;spacingLeft=6;overflow=hidden;whiteSpace=wrap;html=1;" vertex="1" parent="jawmpuD1RzxkUAFrGuxK-71">
          <mxGeometry x="30" width="150" height="30" as="geometry">
            <mxRectangle width="150" height="30" as="alternateBounds" />
          </mxGeometry>
        </mxCell>
        <mxCell id="jawmpuD1RzxkUAFrGuxK-62" value="" style="shape=tableRow;horizontal=0;startSize=0;swimlaneHead=0;swimlaneBody=0;fillColor=none;collapsible=0;dropTarget=0;points=[[0,0.5],[1,0.5]];portConstraint=eastwest;top=0;left=0;right=0;bottom=0;" vertex="1" parent="jawmpuD1RzxkUAFrGuxK-52">
          <mxGeometry y="180" width="180" height="30" as="geometry" />
        </mxCell>
        <mxCell id="jawmpuD1RzxkUAFrGuxK-63" value="" style="shape=partialRectangle;connectable=0;fillColor=none;top=0;left=0;bottom=0;right=0;editable=1;overflow=hidden;whiteSpace=wrap;html=1;" vertex="1" parent="jawmpuD1RzxkUAFrGuxK-62">
          <mxGeometry width="30" height="30" as="geometry">
            <mxRectangle width="30" height="30" as="alternateBounds" />
          </mxGeometry>
        </mxCell>
        <mxCell id="jawmpuD1RzxkUAFrGuxK-64" value="노출여부" style="shape=partialRectangle;connectable=0;fillColor=none;top=0;left=0;bottom=0;right=0;align=left;spacingLeft=6;overflow=hidden;whiteSpace=wrap;html=1;" vertex="1" parent="jawmpuD1RzxkUAFrGuxK-62">
          <mxGeometry x="30" width="150" height="30" as="geometry">
            <mxRectangle width="150" height="30" as="alternateBounds" />
          </mxGeometry>
        </mxCell>
        <mxCell id="jawmpuD1RzxkUAFrGuxK-74" value="" style="edgeStyle=orthogonalEdgeStyle;fontSize=12;html=1;endArrow=ERzeroToMany;startArrow=ERmandOne;rounded=0;exitX=1;exitY=0.5;exitDx=0;exitDy=0;entryX=0;entryY=0.5;entryDx=0;entryDy=0;" edge="1" parent="1" source="jawmpuD1RzxkUAFrGuxK-40" target="jawmpuD1RzxkUAFrGuxK-59">
          <mxGeometry width="100" height="100" relative="1" as="geometry">
            <mxPoint x="1060" y="390" as="sourcePoint" />
            <mxPoint x="1180" y="390.5" as="targetPoint" />
          </mxGeometry>
        </mxCell>
        <mxCell id="jawmpuD1RzxkUAFrGuxK-75" value="파일정보" style="shape=table;startSize=30;container=1;collapsible=1;childLayout=tableLayout;fixedRows=1;rowLines=0;fontStyle=1;align=center;resizeLast=1;html=1;" vertex="1" parent="1">
          <mxGeometry x="1440" y="430" width="180" height="270" as="geometry" />
        </mxCell>
        <mxCell id="jawmpuD1RzxkUAFrGuxK-76" value="" style="shape=tableRow;horizontal=0;startSize=0;swimlaneHead=0;swimlaneBody=0;fillColor=none;collapsible=0;dropTarget=0;points=[[0,0.5],[1,0.5]];portConstraint=eastwest;top=0;left=0;right=0;bottom=1;" vertex="1" parent="jawmpuD1RzxkUAFrGuxK-75">
          <mxGeometry y="30" width="180" height="30" as="geometry" />
        </mxCell>
        <mxCell id="jawmpuD1RzxkUAFrGuxK-77" value="PK" style="shape=partialRectangle;connectable=0;fillColor=none;top=0;left=0;bottom=0;right=0;fontStyle=1;overflow=hidden;whiteSpace=wrap;html=1;" vertex="1" parent="jawmpuD1RzxkUAFrGuxK-76">
          <mxGeometry width="30" height="30" as="geometry">
            <mxRectangle width="30" height="30" as="alternateBounds" />
          </mxGeometry>
        </mxCell>
        <mxCell id="jawmpuD1RzxkUAFrGuxK-78" value="파일번호" style="shape=partialRectangle;connectable=0;fillColor=none;top=0;left=0;bottom=0;right=0;align=left;spacingLeft=6;fontStyle=5;overflow=hidden;whiteSpace=wrap;html=1;" vertex="1" parent="jawmpuD1RzxkUAFrGuxK-76">
          <mxGeometry x="30" width="150" height="30" as="geometry">
            <mxRectangle width="150" height="30" as="alternateBounds" />
          </mxGeometry>
        </mxCell>
        <mxCell id="jawmpuD1RzxkUAFrGuxK-79" value="" style="shape=tableRow;horizontal=0;startSize=0;swimlaneHead=0;swimlaneBody=0;fillColor=none;collapsible=0;dropTarget=0;points=[[0,0.5],[1,0.5]];portConstraint=eastwest;top=0;left=0;right=0;bottom=0;" vertex="1" parent="jawmpuD1RzxkUAFrGuxK-75">
          <mxGeometry y="60" width="180" height="30" as="geometry" />
        </mxCell>
        <mxCell id="jawmpuD1RzxkUAFrGuxK-80" value="FK&lt;span style=&quot;white-space: pre;&quot;&gt;&#x9;&lt;/span&gt;" style="shape=partialRectangle;connectable=0;fillColor=none;top=0;left=0;bottom=0;right=0;editable=1;overflow=hidden;whiteSpace=wrap;html=1;" vertex="1" parent="jawmpuD1RzxkUAFrGuxK-79">
          <mxGeometry width="30" height="30" as="geometry">
            <mxRectangle width="30" height="30" as="alternateBounds" />
          </mxGeometry>
        </mxCell>
        <mxCell id="jawmpuD1RzxkUAFrGuxK-81" value="글번호" style="shape=partialRectangle;connectable=0;fillColor=none;top=0;left=0;bottom=0;right=0;align=left;spacingLeft=6;overflow=hidden;whiteSpace=wrap;html=1;" vertex="1" parent="jawmpuD1RzxkUAFrGuxK-79">
          <mxGeometry x="30" width="150" height="30" as="geometry">
            <mxRectangle width="150" height="30" as="alternateBounds" />
          </mxGeometry>
        </mxCell>
        <mxCell id="jawmpuD1RzxkUAFrGuxK-97" value="" style="shape=tableRow;horizontal=0;startSize=0;swimlaneHead=0;swimlaneBody=0;fillColor=none;collapsible=0;dropTarget=0;points=[[0,0.5],[1,0.5]];portConstraint=eastwest;top=0;left=0;right=0;bottom=0;" vertex="1" parent="jawmpuD1RzxkUAFrGuxK-75">
          <mxGeometry y="90" width="180" height="30" as="geometry" />
        </mxCell>
        <mxCell id="jawmpuD1RzxkUAFrGuxK-98" value="" style="shape=partialRectangle;connectable=0;fillColor=none;top=0;left=0;bottom=0;right=0;editable=1;overflow=hidden;whiteSpace=wrap;html=1;" vertex="1" parent="jawmpuD1RzxkUAFrGuxK-97">
          <mxGeometry width="30" height="30" as="geometry">
            <mxRectangle width="30" height="30" as="alternateBounds" />
          </mxGeometry>
        </mxCell>
        <mxCell id="jawmpuD1RzxkUAFrGuxK-99" value="업로드이름" style="shape=partialRectangle;connectable=0;fillColor=none;top=0;left=0;bottom=0;right=0;align=left;spacingLeft=6;overflow=hidden;whiteSpace=wrap;html=1;" vertex="1" parent="jawmpuD1RzxkUAFrGuxK-97">
          <mxGeometry x="30" width="150" height="30" as="geometry">
            <mxRectangle width="150" height="30" as="alternateBounds" />
          </mxGeometry>
        </mxCell>
        <mxCell id="jawmpuD1RzxkUAFrGuxK-82" value="" style="shape=tableRow;horizontal=0;startSize=0;swimlaneHead=0;swimlaneBody=0;fillColor=none;collapsible=0;dropTarget=0;points=[[0,0.5],[1,0.5]];portConstraint=eastwest;top=0;left=0;right=0;bottom=0;" vertex="1" parent="jawmpuD1RzxkUAFrGuxK-75">
          <mxGeometry y="120" width="180" height="30" as="geometry" />
        </mxCell>
        <mxCell id="jawmpuD1RzxkUAFrGuxK-83" value="" style="shape=partialRectangle;connectable=0;fillColor=none;top=0;left=0;bottom=0;right=0;editable=1;overflow=hidden;whiteSpace=wrap;html=1;" vertex="1" parent="jawmpuD1RzxkUAFrGuxK-82">
          <mxGeometry width="30" height="30" as="geometry">
            <mxRectangle width="30" height="30" as="alternateBounds" />
          </mxGeometry>
        </mxCell>
        <mxCell id="jawmpuD1RzxkUAFrGuxK-84" value="저장이름" style="shape=partialRectangle;connectable=0;fillColor=none;top=0;left=0;bottom=0;right=0;align=left;spacingLeft=6;overflow=hidden;whiteSpace=wrap;html=1;" vertex="1" parent="jawmpuD1RzxkUAFrGuxK-82">
          <mxGeometry x="30" width="150" height="30" as="geometry">
            <mxRectangle width="150" height="30" as="alternateBounds" />
          </mxGeometry>
        </mxCell>
        <mxCell id="jawmpuD1RzxkUAFrGuxK-85" value="" style="shape=tableRow;horizontal=0;startSize=0;swimlaneHead=0;swimlaneBody=0;fillColor=none;collapsible=0;dropTarget=0;points=[[0,0.5],[1,0.5]];portConstraint=eastwest;top=0;left=0;right=0;bottom=0;" vertex="1" parent="jawmpuD1RzxkUAFrGuxK-75">
          <mxGeometry y="150" width="180" height="30" as="geometry" />
        </mxCell>
        <mxCell id="jawmpuD1RzxkUAFrGuxK-86" value="" style="shape=partialRectangle;connectable=0;fillColor=none;top=0;left=0;bottom=0;right=0;editable=1;overflow=hidden;whiteSpace=wrap;html=1;" vertex="1" parent="jawmpuD1RzxkUAFrGuxK-85">
          <mxGeometry width="30" height="30" as="geometry">
            <mxRectangle width="30" height="30" as="alternateBounds" />
          </mxGeometry>
        </mxCell>
        <mxCell id="jawmpuD1RzxkUAFrGuxK-87" value="저장경로" style="shape=partialRectangle;connectable=0;fillColor=none;top=0;left=0;bottom=0;right=0;align=left;spacingLeft=6;overflow=hidden;whiteSpace=wrap;html=1;" vertex="1" parent="jawmpuD1RzxkUAFrGuxK-85">
          <mxGeometry x="30" width="150" height="30" as="geometry">
            <mxRectangle width="150" height="30" as="alternateBounds" />
          </mxGeometry>
        </mxCell>
        <mxCell id="jawmpuD1RzxkUAFrGuxK-88" value="" style="shape=tableRow;horizontal=0;startSize=0;swimlaneHead=0;swimlaneBody=0;fillColor=none;collapsible=0;dropTarget=0;points=[[0,0.5],[1,0.5]];portConstraint=eastwest;top=0;left=0;right=0;bottom=0;" vertex="1" parent="jawmpuD1RzxkUAFrGuxK-75">
          <mxGeometry y="180" width="180" height="30" as="geometry" />
        </mxCell>
        <mxCell id="jawmpuD1RzxkUAFrGuxK-89" value="" style="shape=partialRectangle;connectable=0;fillColor=none;top=0;left=0;bottom=0;right=0;editable=1;overflow=hidden;whiteSpace=wrap;html=1;" vertex="1" parent="jawmpuD1RzxkUAFrGuxK-88">
          <mxGeometry width="30" height="30" as="geometry">
            <mxRectangle width="30" height="30" as="alternateBounds" />
          </mxGeometry>
        </mxCell>
        <mxCell id="jawmpuD1RzxkUAFrGuxK-90" value="저장일" style="shape=partialRectangle;connectable=0;fillColor=none;top=0;left=0;bottom=0;right=0;align=left;spacingLeft=6;overflow=hidden;whiteSpace=wrap;html=1;" vertex="1" parent="jawmpuD1RzxkUAFrGuxK-88">
          <mxGeometry x="30" width="150" height="30" as="geometry">
            <mxRectangle width="150" height="30" as="alternateBounds" />
          </mxGeometry>
        </mxCell>
        <mxCell id="jawmpuD1RzxkUAFrGuxK-91" value="" style="shape=tableRow;horizontal=0;startSize=0;swimlaneHead=0;swimlaneBody=0;fillColor=none;collapsible=0;dropTarget=0;points=[[0,0.5],[1,0.5]];portConstraint=eastwest;top=0;left=0;right=0;bottom=0;" vertex="1" parent="jawmpuD1RzxkUAFrGuxK-75">
          <mxGeometry y="210" width="180" height="30" as="geometry" />
        </mxCell>
        <mxCell id="jawmpuD1RzxkUAFrGuxK-92" value="" style="shape=partialRectangle;connectable=0;fillColor=none;top=0;left=0;bottom=0;right=0;editable=1;overflow=hidden;whiteSpace=wrap;html=1;" vertex="1" parent="jawmpuD1RzxkUAFrGuxK-91">
          <mxGeometry width="30" height="30" as="geometry">
            <mxRectangle width="30" height="30" as="alternateBounds" />
          </mxGeometry>
        </mxCell>
        <mxCell id="jawmpuD1RzxkUAFrGuxK-93" value="파일길이" style="shape=partialRectangle;connectable=0;fillColor=none;top=0;left=0;bottom=0;right=0;align=left;spacingLeft=6;overflow=hidden;whiteSpace=wrap;html=1;" vertex="1" parent="jawmpuD1RzxkUAFrGuxK-91">
          <mxGeometry x="30" width="150" height="30" as="geometry">
            <mxRectangle width="150" height="30" as="alternateBounds" />
          </mxGeometry>
        </mxCell>
        <mxCell id="jawmpuD1RzxkUAFrGuxK-94" value="" style="shape=tableRow;horizontal=0;startSize=0;swimlaneHead=0;swimlaneBody=0;fillColor=none;collapsible=0;dropTarget=0;points=[[0,0.5],[1,0.5]];portConstraint=eastwest;top=0;left=0;right=0;bottom=0;" vertex="1" parent="jawmpuD1RzxkUAFrGuxK-75">
          <mxGeometry y="240" width="180" height="30" as="geometry" />
        </mxCell>
        <mxCell id="jawmpuD1RzxkUAFrGuxK-95" value="" style="shape=partialRectangle;connectable=0;fillColor=none;top=0;left=0;bottom=0;right=0;editable=1;overflow=hidden;whiteSpace=wrap;html=1;" vertex="1" parent="jawmpuD1RzxkUAFrGuxK-94">
          <mxGeometry width="30" height="30" as="geometry">
            <mxRectangle width="30" height="30" as="alternateBounds" />
          </mxGeometry>
        </mxCell>
        <mxCell id="jawmpuD1RzxkUAFrGuxK-96" value="사용여부" style="shape=partialRectangle;connectable=0;fillColor=none;top=0;left=0;bottom=0;right=0;align=left;spacingLeft=6;overflow=hidden;whiteSpace=wrap;html=1;" vertex="1" parent="jawmpuD1RzxkUAFrGuxK-94">
          <mxGeometry x="30" width="150" height="30" as="geometry">
            <mxRectangle width="150" height="30" as="alternateBounds" />
          </mxGeometry>
        </mxCell>
        <mxCell id="jawmpuD1RzxkUAFrGuxK-100" value="" style="edgeStyle=orthogonalEdgeStyle;fontSize=12;html=1;endArrow=ERzeroToMany;startArrow=ERmandOne;rounded=0;exitX=1;exitY=0.5;exitDx=0;exitDy=0;entryX=0;entryY=0.5;entryDx=0;entryDy=0;" edge="1" parent="1" source="jawmpuD1RzxkUAFrGuxK-53" target="jawmpuD1RzxkUAFrGuxK-79">
          <mxGeometry width="100" height="100" relative="1" as="geometry">
            <mxPoint x="1350" y="485" as="sourcePoint" />
            <mxPoint x="1450" y="545" as="targetPoint" />
          </mxGeometry>
        </mxCell>
      </root>
    </mxGraphModel>
  </diagram>
</mxfile>
